<svg width="58" height="58" viewBox="0 0 58 58" fill="none" xmlns="http://www.w3.org/2000/svg">
<circle cx="29" cy="29" r="28" fill="white"/>
<circle cx="29" cy="29" r="28.5" stroke="black" stroke-opacity="0.1"/>
<path opacity="0.5" fill-rule="evenodd" clip-rule="evenodd" d="M23.3279 22.3994C22.7953 21.8669 21.9319 21.8669 21.3994 22.3994C20.8669 22.9319 20.8669 23.7953 21.3994 24.3279L26.5715 29.5L21.3994 34.6721C20.8669 35.2047 20.8669 36.0681 21.3994 36.6006C21.9319 37.1332 22.7953 37.1332 23.3279 36.6006L28.5 31.4285L33.6721 36.6006C34.2047 37.1332 35.0681 37.1332 35.6006 36.6006C36.1332 36.0681 36.1332 35.2047 35.6006 34.6721L30.4285 29.5L35.6006 24.3279C36.1332 23.7953 36.1332 22.9319 35.6006 22.3994C35.0681 21.8669 34.2047 21.8669 33.6721 22.3994L28.5 27.5715L23.3279 22.3994Z" fill="black"/>
</svg>
