<svg width="41" height="41" viewBox="0 0 41 41" fill="none" xmlns="http://www.w3.org/2000/svg">
<circle cx="20.5" cy="20.5" r="20.5" fill="white"/>
<path fill-rule="evenodd" clip-rule="evenodd" d="M29.8067 16.6236L29.1842 15.5435C28.6577 14.6296 27.4907 14.3143 26.5755 14.8387V14.8387C26.1399 15.0953 25.6201 15.1681 25.1307 15.0411C24.6413 14.914 24.2226 14.5975 23.9668 14.1613C23.8023 13.8841 23.7139 13.5684 23.7105 13.246V13.246C23.7254 12.7292 23.5304 12.2284 23.17 11.8576C22.8096 11.4869 22.3145 11.2778 21.7975 11.278H20.5435C20.037 11.278 19.5513 11.4799 19.194 11.8389C18.8367 12.1979 18.6372 12.6846 18.6396 13.1911V13.1911C18.6246 14.2369 17.7725 15.0768 16.7266 15.0767C16.4042 15.0733 16.0885 14.9849 15.8112 14.8204V14.8204C14.8961 14.296 13.7291 14.6113 13.2025 15.5252L12.5343 16.6236C12.0084 17.5364 12.3194 18.7026 13.23 19.2323V19.2323C13.8219 19.574 14.1865 20.2056 14.1865 20.889C14.1865 21.5725 13.8219 22.204 13.23 22.5458V22.5458C12.3206 23.0719 12.0092 24.2353 12.5343 25.1453V25.1453L13.1659 26.2346C13.4126 26.6798 13.8266 27.0083 14.3162 27.1474C14.8058 27.2866 15.3306 27.2249 15.7746 26.976V26.976C16.2111 26.7213 16.7312 26.6515 17.2193 26.7822C17.7075 26.9128 18.1232 27.233 18.3742 27.6716C18.5387 27.9489 18.6271 28.2646 18.6305 28.587V28.587C18.6305 29.6435 19.487 30.5 20.5435 30.5H21.7975C22.8505 30.5 23.7055 29.6491 23.7105 28.5961V28.5961C23.7081 28.088 23.9089 27.6 24.2682 27.2407C24.6275 26.8814 25.1155 26.6806 25.6236 26.6831C25.9452 26.6917 26.2596 26.7797 26.5389 26.9394V26.9394C27.4517 27.4653 28.6179 27.1543 29.1476 26.2437V26.2437L29.8067 25.1453C30.0618 24.7075 30.1318 24.186 30.0012 23.6963C29.8706 23.2067 29.5502 22.7893 29.111 22.5366V22.5366C28.6718 22.2839 28.3514 21.8665 28.2208 21.3769C28.0902 20.8873 28.1603 20.3658 28.4154 19.9279C28.5812 19.6383 28.8214 19.3982 29.111 19.2323V19.2323C30.0161 18.7029 30.3264 17.5435 29.8067 16.6327V16.6327V16.6236Z" stroke="#F2771A" stroke-width="1.5" stroke-linecap="round" stroke-linejoin="round"/>
<circle cx="21.175" cy="20.889" r="2.63616" stroke="#F2771A" stroke-width="1.5" stroke-linecap="round" stroke-linejoin="round"/>
</svg>
