<svg width="26" height="25" viewBox="0 0 26 25" fill="none" xmlns="http://www.w3.org/2000/svg">
<path d="M25 12.7841C25 11.8977 24.9205 11.0455 24.7727 10.2273H13V15.0625H19.7273C19.4375 16.625 18.5568 17.9489 17.233 18.8352V21.9716H21.2727C23.6364 19.7955 25 16.5909 25 12.7841Z" fill="#4285F4"/>
<path d="M13 25C16.375 25 19.2045 23.8807 21.2727 21.9716L17.2329 18.8352C16.1136 19.5852 14.6818 20.0284 13 20.0284C9.7443 20.0284 6.98862 17.8295 6.00566 14.875H1.82953V18.1136C3.88635 22.1989 8.11362 25 13 25Z" fill="#34A853"/>
<path d="M6.00568 14.875C5.75568 14.125 5.61364 13.3239 5.61364 12.5C5.61364 11.6761 5.75568 10.875 6.00568 10.125V6.88635H1.82955C0.954545 8.62824 0.499229 10.5507 0.500001 12.5C0.500001 14.517 0.982956 16.4261 1.82955 18.1136L6.00568 14.875Z" fill="#FBBC05"/>
<path d="M13 4.97159C14.8352 4.97159 16.4829 5.60227 17.7784 6.84091L21.3636 3.25568C19.1988 1.23864 16.3693 0 13 0C8.11362 0 3.88635 2.80114 1.82953 6.88636L6.00566 10.125C6.98862 7.17045 9.7443 4.97159 13 4.97159Z" fill="#EA4335"/>
</svg>
