<svg width="29" height="29" viewBox="0 0 29 29" fill="none" xmlns="http://www.w3.org/2000/svg">
<path d="M24.1667 8.15624C26.0019 8.15624 27.4896 6.66852 27.4896 4.83332C27.4896 2.99813 26.0019 1.51041 24.1667 1.51041C22.3315 1.51041 20.8438 2.99813 20.8438 4.83332C20.8438 6.66852 22.3315 8.15624 24.1667 8.15624Z" fill="#FBBC05"/>
<path d="M23.0067 9.84791C21.1096 9.43707 19.5629 7.89041 19.1521 5.99332C18.995 5.25624 18.9829 4.54332 19.1159 3.86666C19.2729 3.11749 18.7171 2.41666 17.9438 2.41666H8.45835C5.12335 2.41666 2.41669 5.12332 2.41669 8.45832V16.8562C2.41669 20.1912 5.12335 22.8979 8.45835 22.8979H10.2709C10.6092 22.8979 11.0442 23.1154 11.2375 23.3812L13.05 25.7858C13.8475 26.8492 15.1525 26.8492 15.95 25.7858L17.7625 23.3812C17.9921 23.0792 18.3425 22.8979 18.7292 22.8979H20.5538C23.8888 22.8979 26.5834 20.2033 26.5834 16.8683V11.0562C26.5834 10.295 25.8825 9.73916 25.1334 9.88416C24.4567 10.005 23.7438 10.005 23.0067 9.84791ZM9.66669 14.5C8.99002 14.5 8.45835 13.9562 8.45835 13.2917C8.45835 12.6271 8.99002 12.0833 9.66669 12.0833C10.3313 12.0833 10.875 12.6271 10.875 13.2917C10.875 13.9562 10.3434 14.5 9.66669 14.5ZM14.5 14.5C13.8234 14.5 13.2917 13.9562 13.2917 13.2917C13.2917 12.6271 13.8234 12.0833 14.5 12.0833C15.1646 12.0833 15.7084 12.6271 15.7084 13.2917C15.7084 13.9562 15.1767 14.5 14.5 14.5ZM19.3334 14.5C18.6567 14.5 18.125 13.9562 18.125 13.2917C18.125 12.6271 18.6567 12.0833 19.3334 12.0833C19.9979 12.0833 20.5417 12.6271 20.5417 13.2917C20.5417 13.9562 20.01 14.5 19.3334 14.5Z" fill="#FBBC05"/>
</svg>
