<svg width="29" height="29" viewBox="0 0 29 29" fill="none" xmlns="http://www.w3.org/2000/svg">
<path d="M14.2825 8.33749C17.7384 7.58832 21.2425 7.47957 24.7104 8.04749C22.5717 4.66416 18.8017 2.41666 14.5 2.41666C10.7421 2.41666 7.38294 4.13249 5.15961 6.82707C5.69127 8.39791 6.36794 9.89624 7.17752 11.3221C7.63669 12.1437 8.80877 12.1075 9.28002 11.2979C10.3071 9.56999 12.1559 8.40999 14.2825 8.33749Z" fill="#6BA2F6"/>
<path d="M9.32833 17.7867C6.91167 15.2008 5.02667 12.2525 3.73375 8.98999C1.92125 12.5667 1.93333 16.9529 4.14458 20.6383C6.07792 23.8646 9.26792 25.8704 12.7237 26.39C13.7992 25.1212 14.7417 23.7679 15.5512 22.3542C16.0225 21.5325 15.3821 20.5537 14.4396 20.5537C12.4217 20.5658 10.4762 19.575 9.32833 17.7867Z" fill="#6BA2F6"/>
<path d="M10.3554 14.5C10.3554 15.2371 10.5367 15.9258 10.9112 16.5783C11.6483 17.8471 13.0137 18.6446 14.4879 18.6446C15.9621 18.6446 17.3396 17.8471 18.0646 16.5783C18.4392 15.9258 18.6325 15.2371 18.6325 14.5C18.6325 12.2162 16.7717 10.3675 14.4879 10.3675C12.2162 10.3554 10.3554 12.2162 10.3554 14.5Z" fill="#6BA2F6"/>
<path d="M25.7859 10.1742C24.1304 9.82374 22.4509 9.63041 20.7834 9.60624C19.8288 9.59416 19.285 10.6333 19.7563 11.4671C20.2396 12.325 20.5175 13.3158 20.5175 14.3671C20.5175 15.3821 20.2517 16.385 19.7563 17.2792C18.6204 20.7592 16.9288 23.8525 14.6934 26.5833C21.2788 26.4746 26.5834 21.1096 26.5834 14.5C26.5834 12.9775 26.3054 11.5154 25.7859 10.1742Z" fill="#6BA2F6"/>
</svg>
